<mxfile host="app.diagrams.net" modified="2023-02-03T10:30:44.934Z" agent="5.0 (X11; Linux x86_64) AppleWebKit/537.36 (KHTML, like Gecko) Chrome/107.0.0.0 Safari/537.36" etag="b5_7yk2c549tCru43RTc" version="20.8.14" type="github" pages="4">
  <diagram id="itfLSJuNzvP1CC6jbk_m" name="spl">
    <mxGraphModel dx="3016" dy="1976" grid="1" gridSize="10" guides="1" tooltips="1" connect="1" arrows="1" fold="1" page="1" pageScale="1" pageWidth="827" pageHeight="1169" math="0" shadow="0">
      <root>
        <mxCell id="0" />
        <mxCell id="1" parent="0" />
        <mxCell id="IXSDWKNF3xMui7y9OmqM-1" value="start.s" style="shape=umlLifeline;perimeter=lifelinePerimeter;whiteSpace=wrap;html=1;container=1;collapsible=0;recursiveResize=0;outlineConnect=0;fillColor=#ffe6cc;strokeColor=#d79b00;" parent="1" vertex="1">
          <mxGeometry x="-1550" y="-1090" width="100" height="800" as="geometry" />
        </mxCell>
        <mxCell id="IXSDWKNF3xMui7y9OmqM-2" value="crt0_64.S" style="shape=umlLifeline;perimeter=lifelinePerimeter;whiteSpace=wrap;html=1;container=1;collapsible=0;recursiveResize=0;outlineConnect=0;fillColor=#ffe6cc;strokeColor=#d79b00;" parent="1" vertex="1">
          <mxGeometry x="-1410" y="-1090" width="100" height="750" as="geometry" />
        </mxCell>
        <mxCell id="IXSDWKNF3xMui7y9OmqM-3" value="_main" style="html=1;verticalAlign=bottom;endArrow=block;" parent="1" source="IXSDWKNF3xMui7y9OmqM-1" target="IXSDWKNF3xMui7y9OmqM-2" edge="1">
          <mxGeometry width="80" relative="1" as="geometry">
            <mxPoint x="-1450" y="-980" as="sourcePoint" />
            <mxPoint x="-1370" y="-980" as="targetPoint" />
            <Array as="points">
              <mxPoint x="-1380" y="-980" />
            </Array>
          </mxGeometry>
        </mxCell>
        <mxCell id="IXSDWKNF3xMui7y9OmqM-7" value="imx8mp_evk/spl.c" style="shape=umlLifeline;perimeter=lifelinePerimeter;whiteSpace=wrap;html=1;container=1;collapsible=0;recursiveResize=0;outlineConnect=0;fillColor=#ffe6cc;strokeColor=#d79b00;" parent="1" vertex="1">
          <mxGeometry x="-1270" y="-1090" width="100" height="750" as="geometry" />
        </mxCell>
        <mxCell id="IXSDWKNF3xMui7y9OmqM-10" value="board_init_f" style="html=1;verticalAlign=bottom;endArrow=block;" parent="1" source="IXSDWKNF3xMui7y9OmqM-2" target="IXSDWKNF3xMui7y9OmqM-7" edge="1">
          <mxGeometry width="80" relative="1" as="geometry">
            <mxPoint x="-1280" y="-700" as="sourcePoint" />
            <mxPoint x="-1200" y="-700" as="targetPoint" />
            <Array as="points">
              <mxPoint x="-1220" y="-930" />
            </Array>
          </mxGeometry>
        </mxCell>
        <mxCell id="IXSDWKNF3xMui7y9OmqM-11" value="common/spl/spl.c" style="shape=umlLifeline;perimeter=lifelinePerimeter;whiteSpace=wrap;html=1;container=1;collapsible=0;recursiveResize=0;outlineConnect=0;fillColor=#ffe6cc;strokeColor=#d79b00;" parent="1" vertex="1">
          <mxGeometry x="-1110" y="-1090" width="100" height="750" as="geometry" />
        </mxCell>
        <mxCell id="IXSDWKNF3xMui7y9OmqM-14" value="board_init_r" style="html=1;verticalAlign=bottom;endArrow=block;" parent="1" edge="1">
          <mxGeometry width="80" relative="1" as="geometry">
            <mxPoint x="-1220.1896551724137" y="-770.0000000000001" as="sourcePoint" />
            <mxPoint x="-1060" y="-770" as="targetPoint" />
            <Array as="points">
              <mxPoint x="-1070" y="-770" />
            </Array>
          </mxGeometry>
        </mxCell>
        <mxCell id="PUqSXjSxDdwL8eWqKTTd-1" value="" style="html=1;points=[];perimeter=orthogonalPerimeter;" parent="1" vertex="1">
          <mxGeometry x="-1224" y="-850" width="10" height="40" as="geometry" />
        </mxCell>
        <mxCell id="PUqSXjSxDdwL8eWqKTTd-2" value="arch_cpu_init&lt;br&gt;board_early_init_f&lt;br&gt;preloader_console_init&lt;br&gt;spl_init&lt;br&gt;enable_tzc380&lt;br&gt;power_init_board&lt;br&gt;spl_dram_init" style="edgeStyle=orthogonalEdgeStyle;html=1;align=left;spacingLeft=2;endArrow=block;rounded=0;entryX=1;entryY=0;" parent="1" target="PUqSXjSxDdwL8eWqKTTd-1" edge="1">
          <mxGeometry relative="1" as="geometry">
            <mxPoint x="-1219" y="-870" as="sourcePoint" />
            <Array as="points">
              <mxPoint x="-1189" y="-870" />
            </Array>
          </mxGeometry>
        </mxCell>
        <mxCell id="DqdUZk1EeqwvCj_-8iUR-1" value="" style="html=1;points=[];perimeter=orthogonalPerimeter;" parent="1" vertex="1">
          <mxGeometry x="-1065" y="-730" width="10" height="40" as="geometry" />
        </mxCell>
        <mxCell id="DqdUZk1EeqwvCj_-8iUR-2" value="boot_from_devices&lt;br&gt;spl_load_image&lt;br&gt;load_image" style="edgeStyle=orthogonalEdgeStyle;html=1;align=left;spacingLeft=2;endArrow=block;rounded=0;entryX=1;entryY=0;" parent="1" target="DqdUZk1EeqwvCj_-8iUR-1" edge="1">
          <mxGeometry relative="1" as="geometry">
            <mxPoint x="-1060" y="-750" as="sourcePoint" />
            <Array as="points">
              <mxPoint x="-1030" y="-750" />
            </Array>
          </mxGeometry>
        </mxCell>
        <mxCell id="DqdUZk1EeqwvCj_-8iUR-3" value="spl_imx_romapi.c" style="shape=umlLifeline;perimeter=lifelinePerimeter;whiteSpace=wrap;html=1;container=1;collapsible=0;recursiveResize=0;outlineConnect=0;fillColor=#ffe6cc;strokeColor=#d79b00;" parent="1" vertex="1">
          <mxGeometry x="-950" y="-1090" width="100" height="750" as="geometry" />
        </mxCell>
        <mxCell id="DqdUZk1EeqwvCj_-8iUR-4" value="board_return_to_bootrom" style="html=1;verticalAlign=bottom;endArrow=block;" parent="1" edge="1">
          <mxGeometry width="80" relative="1" as="geometry">
            <mxPoint x="-1060" y="-650" as="sourcePoint" />
            <mxPoint x="-900" y="-650" as="targetPoint" />
          </mxGeometry>
        </mxCell>
        <mxCell id="DqdUZk1EeqwvCj_-8iUR-5" value="spl_fit.c" style="shape=umlLifeline;perimeter=lifelinePerimeter;whiteSpace=wrap;html=1;container=1;collapsible=0;recursiveResize=0;outlineConnect=0;fillColor=#ffe6cc;strokeColor=#d79b00;" parent="1" vertex="1">
          <mxGeometry x="-820" y="-1090" width="100" height="750" as="geometry" />
        </mxCell>
        <mxCell id="DqdUZk1EeqwvCj_-8iUR-6" value="" style="html=1;points=[];perimeter=orthogonalPerimeter;" parent="1" vertex="1">
          <mxGeometry x="-905" y="-610" width="10" height="40" as="geometry" />
        </mxCell>
        <mxCell id="DqdUZk1EeqwvCj_-8iUR-7" value="spl_romapi_load_image_seekable" style="edgeStyle=orthogonalEdgeStyle;html=1;align=left;spacingLeft=2;endArrow=block;rounded=0;entryX=1;entryY=0;" parent="1" target="DqdUZk1EeqwvCj_-8iUR-6" edge="1">
          <mxGeometry relative="1" as="geometry">
            <mxPoint x="-900" y="-630" as="sourcePoint" />
            <Array as="points">
              <mxPoint x="-870" y="-630" />
            </Array>
          </mxGeometry>
        </mxCell>
        <mxCell id="DqdUZk1EeqwvCj_-8iUR-8" value="spl_load_simple_fit" style="html=1;verticalAlign=bottom;endArrow=block;" parent="1" source="DqdUZk1EeqwvCj_-8iUR-3" target="DqdUZk1EeqwvCj_-8iUR-5" edge="1">
          <mxGeometry width="80" relative="1" as="geometry">
            <mxPoint x="-870" y="-520" as="sourcePoint" />
            <mxPoint x="-790" y="-520" as="targetPoint" />
            <Array as="points">
              <mxPoint x="-840" y="-980" />
            </Array>
          </mxGeometry>
        </mxCell>
        <mxCell id="DqdUZk1EeqwvCj_-8iUR-12" value="-&amp;gt;1" style="text;html=1;strokeColor=none;fillColor=none;align=center;verticalAlign=middle;whiteSpace=wrap;rounded=0;" parent="1" vertex="1">
          <mxGeometry x="-935" y="-990" width="40" height="20" as="geometry" />
        </mxCell>
        <mxCell id="DqdUZk1EeqwvCj_-8iUR-13" value="1-&amp;gt;" style="text;html=1;strokeColor=none;fillColor=none;align=center;verticalAlign=middle;whiteSpace=wrap;rounded=0;" parent="1" vertex="1">
          <mxGeometry x="-895" y="-560" width="40" height="20" as="geometry" />
        </mxCell>
        <mxCell id="DqdUZk1EeqwvCj_-8iUR-14" value="" style="html=1;points=[];perimeter=orthogonalPerimeter;" parent="1" vertex="1">
          <mxGeometry x="-775" y="-940" width="10" height="40" as="geometry" />
        </mxCell>
        <mxCell id="DqdUZk1EeqwvCj_-8iUR-15" value="spl_load_fit_image&lt;br&gt;(load u-boot-nodtb.bin)" style="edgeStyle=orthogonalEdgeStyle;html=1;align=left;spacingLeft=2;endArrow=block;rounded=0;entryX=1;entryY=0;" parent="1" target="DqdUZk1EeqwvCj_-8iUR-14" edge="1">
          <mxGeometry relative="1" as="geometry">
            <mxPoint x="-770" y="-960" as="sourcePoint" />
            <Array as="points">
              <mxPoint x="-740" y="-960" />
            </Array>
          </mxGeometry>
        </mxCell>
        <mxCell id="kCMZCVfE2zOQ6D4jOAOP-1" value="" style="html=1;points=[];perimeter=orthogonalPerimeter;" parent="1" vertex="1">
          <mxGeometry x="-775" y="-840" width="10" height="40" as="geometry" />
        </mxCell>
        <mxCell id="kCMZCVfE2zOQ6D4jOAOP-2" value="spl_load_fit_image&lt;br&gt;(load fdt\bl31\tee)" style="edgeStyle=orthogonalEdgeStyle;html=1;align=left;spacingLeft=2;endArrow=block;rounded=0;entryX=1;entryY=0;" parent="1" target="kCMZCVfE2zOQ6D4jOAOP-1" edge="1">
          <mxGeometry relative="1" as="geometry">
            <mxPoint x="-770" y="-860" as="sourcePoint" />
            <Array as="points">
              <mxPoint x="-740" y="-860" />
            </Array>
          </mxGeometry>
        </mxCell>
        <mxCell id="kCMZCVfE2zOQ6D4jOAOP-3" value="" style="html=1;points=[];perimeter=orthogonalPerimeter;" parent="1" vertex="1">
          <mxGeometry x="-1065" y="-500" width="10" height="40" as="geometry" />
        </mxCell>
        <mxCell id="kCMZCVfE2zOQ6D4jOAOP-4" value="jump_to_image_no_args&lt;br&gt;jump to bl31(0x960000)" style="edgeStyle=orthogonalEdgeStyle;html=1;align=left;spacingLeft=2;endArrow=block;rounded=0;entryX=1;entryY=0;" parent="1" target="kCMZCVfE2zOQ6D4jOAOP-3" edge="1">
          <mxGeometry relative="1" as="geometry">
            <mxPoint x="-1060" y="-520" as="sourcePoint" />
            <Array as="points">
              <mxPoint x="-1030" y="-520" />
            </Array>
          </mxGeometry>
        </mxCell>
      </root>
    </mxGraphModel>
  </diagram>
  <diagram name="boot" id="vVP1PHpaEyFwAokCQ8GL">
    <mxGraphModel dx="3016" dy="1976" grid="1" gridSize="10" guides="1" tooltips="1" connect="1" arrows="1" fold="1" page="1" pageScale="1" pageWidth="827" pageHeight="1169" math="0" shadow="0">
      <root>
        <mxCell id="B4EvH_cPuoMqNesHrgQ7-0" />
        <mxCell id="B4EvH_cPuoMqNesHrgQ7-1" parent="B4EvH_cPuoMqNesHrgQ7-0" />
        <mxCell id="B4EvH_cPuoMqNesHrgQ7-2" value="start.s" style="shape=umlLifeline;perimeter=lifelinePerimeter;whiteSpace=wrap;html=1;container=1;collapsible=0;recursiveResize=0;outlineConnect=0;fillColor=#ffe6cc;strokeColor=#d79b00;" parent="B4EvH_cPuoMqNesHrgQ7-1" vertex="1">
          <mxGeometry x="-1550" y="-1090" width="100" height="800" as="geometry" />
        </mxCell>
        <mxCell id="B4EvH_cPuoMqNesHrgQ7-3" value="crt0_64.S" style="shape=umlLifeline;perimeter=lifelinePerimeter;whiteSpace=wrap;html=1;container=1;collapsible=0;recursiveResize=0;outlineConnect=0;fillColor=#ffe6cc;strokeColor=#d79b00;" parent="B4EvH_cPuoMqNesHrgQ7-1" vertex="1">
          <mxGeometry x="-1410" y="-1090" width="100" height="750" as="geometry" />
        </mxCell>
        <mxCell id="B4EvH_cPuoMqNesHrgQ7-4" value="_main" style="html=1;verticalAlign=bottom;endArrow=block;" parent="B4EvH_cPuoMqNesHrgQ7-1" source="B4EvH_cPuoMqNesHrgQ7-2" target="B4EvH_cPuoMqNesHrgQ7-3" edge="1">
          <mxGeometry width="80" relative="1" as="geometry">
            <mxPoint x="-1450" y="-980" as="sourcePoint" />
            <mxPoint x="-1370" y="-980" as="targetPoint" />
            <Array as="points">
              <mxPoint x="-1380" y="-980" />
            </Array>
          </mxGeometry>
        </mxCell>
        <mxCell id="B4EvH_cPuoMqNesHrgQ7-5" value="common/board_f.c" style="shape=umlLifeline;perimeter=lifelinePerimeter;whiteSpace=wrap;html=1;container=1;collapsible=0;recursiveResize=0;outlineConnect=0;fillColor=#ffe6cc;strokeColor=#d79b00;" parent="B4EvH_cPuoMqNesHrgQ7-1" vertex="1">
          <mxGeometry x="-1270" y="-1090" width="100" height="750" as="geometry" />
        </mxCell>
        <mxCell id="B4EvH_cPuoMqNesHrgQ7-6" value="board_init_f" style="html=1;verticalAlign=bottom;endArrow=block;" parent="B4EvH_cPuoMqNesHrgQ7-1" source="B4EvH_cPuoMqNesHrgQ7-3" target="B4EvH_cPuoMqNesHrgQ7-5" edge="1">
          <mxGeometry width="80" relative="1" as="geometry">
            <mxPoint x="-1280" y="-700" as="sourcePoint" />
            <mxPoint x="-1200" y="-700" as="targetPoint" />
            <Array as="points">
              <mxPoint x="-1220" y="-930" />
            </Array>
          </mxGeometry>
        </mxCell>
        <mxCell id="B4EvH_cPuoMqNesHrgQ7-7" value="common/board_r.c" style="shape=umlLifeline;perimeter=lifelinePerimeter;whiteSpace=wrap;html=1;container=1;collapsible=0;recursiveResize=0;outlineConnect=0;fillColor=#ffe6cc;strokeColor=#d79b00;" parent="B4EvH_cPuoMqNesHrgQ7-1" vertex="1">
          <mxGeometry x="-1110" y="-1090" width="100" height="750" as="geometry" />
        </mxCell>
        <mxCell id="B4EvH_cPuoMqNesHrgQ7-27" value="" style="html=1;points=[];perimeter=orthogonalPerimeter;" parent="B4EvH_cPuoMqNesHrgQ7-7" vertex="1">
          <mxGeometry x="47" y="380" width="10" height="40" as="geometry" />
        </mxCell>
        <mxCell id="B4EvH_cPuoMqNesHrgQ7-28" value="initcall_run_list" style="edgeStyle=orthogonalEdgeStyle;html=1;align=left;spacingLeft=2;endArrow=block;rounded=0;entryX=1;entryY=0;" parent="B4EvH_cPuoMqNesHrgQ7-7" target="B4EvH_cPuoMqNesHrgQ7-27" edge="1">
          <mxGeometry relative="1" as="geometry">
            <mxPoint x="52" y="360" as="sourcePoint" />
            <Array as="points">
              <mxPoint x="82" y="360" />
            </Array>
          </mxGeometry>
        </mxCell>
        <mxCell id="B4EvH_cPuoMqNesHrgQ7-8" value="board_init_r" style="html=1;verticalAlign=bottom;endArrow=block;" parent="B4EvH_cPuoMqNesHrgQ7-1" source="B4EvH_cPuoMqNesHrgQ7-3" edge="1">
          <mxGeometry width="80" relative="1" as="geometry">
            <mxPoint x="-1220.1896551724137" y="-770.0000000000001" as="sourcePoint" />
            <mxPoint x="-1060" y="-770" as="targetPoint" />
            <Array as="points">
              <mxPoint x="-1070" y="-770" />
            </Array>
          </mxGeometry>
        </mxCell>
        <mxCell id="B4EvH_cPuoMqNesHrgQ7-9" value="" style="html=1;points=[];perimeter=orthogonalPerimeter;" parent="B4EvH_cPuoMqNesHrgQ7-1" vertex="1">
          <mxGeometry x="-1224" y="-850" width="10" height="40" as="geometry" />
        </mxCell>
        <mxCell id="B4EvH_cPuoMqNesHrgQ7-10" value="initcall_run_list" style="edgeStyle=orthogonalEdgeStyle;html=1;align=left;spacingLeft=2;endArrow=block;rounded=0;entryX=1;entryY=0;" parent="B4EvH_cPuoMqNesHrgQ7-1" target="B4EvH_cPuoMqNesHrgQ7-9" edge="1">
          <mxGeometry relative="1" as="geometry">
            <mxPoint x="-1219" y="-870" as="sourcePoint" />
            <Array as="points">
              <mxPoint x="-1189" y="-870" />
            </Array>
          </mxGeometry>
        </mxCell>
      </root>
    </mxGraphModel>
  </diagram>
  <diagram id="spdOJcJubnvAM1V_QcJH" name="nxp865 memory layout">
    <mxGraphModel dx="2189" dy="1976" grid="1" gridSize="10" guides="1" tooltips="1" connect="1" arrows="1" fold="1" page="1" pageScale="1" pageWidth="827" pageHeight="1169" math="0" shadow="0">
      <root>
        <mxCell id="GEHxs8WLX-EPLE1zo0yo-0" />
        <mxCell id="GEHxs8WLX-EPLE1zo0yo-1" parent="GEHxs8WLX-EPLE1zo0yo-0" />
        <mxCell id="GEHxs8WLX-EPLE1zo0yo-2" value="uboot-its&lt;br&gt;(0x3000)" style="rounded=0;whiteSpace=wrap;html=1;fillColor=#dae8fc;strokeColor=#6c8ebf;" parent="GEHxs8WLX-EPLE1zo0yo-1" vertex="1">
          <mxGeometry x="10" y="460" width="120" height="60" as="geometry" />
        </mxCell>
        <mxCell id="GEHxs8WLX-EPLE1zo0yo-3" value="0x0000_0000" style="text;html=1;strokeColor=none;fillColor=none;align=center;verticalAlign=middle;whiteSpace=wrap;rounded=0;" parent="GEHxs8WLX-EPLE1zo0yo-1" vertex="1">
          <mxGeometry x="150" y="510" width="40" height="20" as="geometry" />
        </mxCell>
        <mxCell id="GEHxs8WLX-EPLE1zo0yo-4" value="0x0000_3000" style="text;html=1;strokeColor=none;fillColor=none;align=center;verticalAlign=middle;whiteSpace=wrap;rounded=0;" parent="GEHxs8WLX-EPLE1zo0yo-1" vertex="1">
          <mxGeometry x="150" y="450" width="40" height="20" as="geometry" />
        </mxCell>
        <mxCell id="GEHxs8WLX-EPLE1zo0yo-5" value="u-boot-nodtb.bin&lt;br&gt;(0x000c8a94)" style="rounded=0;whiteSpace=wrap;html=1;fillColor=#dae8fc;strokeColor=#6c8ebf;" parent="GEHxs8WLX-EPLE1zo0yo-1" vertex="1">
          <mxGeometry x="10" y="350" width="120" height="110" as="geometry" />
        </mxCell>
        <mxCell id="GEHxs8WLX-EPLE1zo0yo-6" value="0x000c_ba94" style="text;html=1;strokeColor=none;fillColor=none;align=center;verticalAlign=middle;whiteSpace=wrap;rounded=0;" parent="GEHxs8WLX-EPLE1zo0yo-1" vertex="1">
          <mxGeometry x="130" y="340" width="80" height="20" as="geometry" />
        </mxCell>
        <mxCell id="GEHxs8WLX-EPLE1zo0yo-7" value="" style="shape=curlyBracket;whiteSpace=wrap;html=1;rounded=1;" parent="GEHxs8WLX-EPLE1zo0yo-1" vertex="1">
          <mxGeometry x="-10" y="460" width="20" height="60" as="geometry" />
        </mxCell>
        <mxCell id="GEHxs8WLX-EPLE1zo0yo-8" value="12k" style="text;html=1;strokeColor=none;fillColor=none;align=center;verticalAlign=middle;whiteSpace=wrap;rounded=0;" parent="GEHxs8WLX-EPLE1zo0yo-1" vertex="1">
          <mxGeometry x="-60" y="480" width="40" height="20" as="geometry" />
        </mxCell>
        <mxCell id="GEHxs8WLX-EPLE1zo0yo-9" value="" style="shape=curlyBracket;whiteSpace=wrap;html=1;rounded=1;size=0.5;" parent="GEHxs8WLX-EPLE1zo0yo-1" vertex="1">
          <mxGeometry x="-10" y="350" width="20" height="110" as="geometry" />
        </mxCell>
        <mxCell id="GEHxs8WLX-EPLE1zo0yo-10" value="802k" style="text;html=1;strokeColor=none;fillColor=none;align=center;verticalAlign=middle;whiteSpace=wrap;rounded=0;" parent="GEHxs8WLX-EPLE1zo0yo-1" vertex="1">
          <mxGeometry x="-60" y="395" width="40" height="20" as="geometry" />
        </mxCell>
        <mxCell id="GEHxs8WLX-EPLE1zo0yo-11" value="tee.bin&lt;br&gt;(0x00061390)" style="rounded=0;whiteSpace=wrap;html=1;fillColor=#dae8fc;strokeColor=#6c8ebf;" parent="GEHxs8WLX-EPLE1zo0yo-1" vertex="1">
          <mxGeometry x="10" y="10" width="120" height="110" as="geometry" />
        </mxCell>
        <mxCell id="GEHxs8WLX-EPLE1zo0yo-12" value="0x000d_d6a0" style="text;html=1;strokeColor=none;fillColor=none;align=center;verticalAlign=middle;whiteSpace=wrap;rounded=0;" parent="GEHxs8WLX-EPLE1zo0yo-1" vertex="1">
          <mxGeometry x="130" y="110" width="80" height="20" as="geometry" />
        </mxCell>
        <mxCell id="GEHxs8WLX-EPLE1zo0yo-13" value="0x0013_ea30" style="text;html=1;strokeColor=none;fillColor=none;align=center;verticalAlign=middle;whiteSpace=wrap;rounded=0;" parent="GEHxs8WLX-EPLE1zo0yo-1" vertex="1">
          <mxGeometry x="130" width="80" height="20" as="geometry" />
        </mxCell>
        <mxCell id="GEHxs8WLX-EPLE1zo0yo-14" value="bl31.bin&lt;br&gt;(0x0000a280)" style="rounded=0;whiteSpace=wrap;html=1;fillColor=#dae8fc;strokeColor=#6c8ebf;" parent="GEHxs8WLX-EPLE1zo0yo-1" vertex="1">
          <mxGeometry x="10" y="150" width="120" height="110" as="geometry" />
        </mxCell>
        <mxCell id="GEHxs8WLX-EPLE1zo0yo-15" value="0x000d_3410" style="text;html=1;strokeColor=none;fillColor=none;align=center;verticalAlign=middle;whiteSpace=wrap;rounded=0;" parent="GEHxs8WLX-EPLE1zo0yo-1" vertex="1">
          <mxGeometry x="130" y="250" width="80" height="20" as="geometry" />
        </mxCell>
        <mxCell id="GEHxs8WLX-EPLE1zo0yo-16" value="0x000d_d690" style="text;html=1;strokeColor=none;fillColor=none;align=center;verticalAlign=middle;whiteSpace=wrap;rounded=0;" parent="GEHxs8WLX-EPLE1zo0yo-1" vertex="1">
          <mxGeometry x="130" y="140" width="80" height="20" as="geometry" />
        </mxCell>
        <mxCell id="GEHxs8WLX-EPLE1zo0yo-17" value="fdt&lt;br&gt;" style="rounded=0;whiteSpace=wrap;html=1;fillColor=#dae8fc;strokeColor=#6c8ebf;" parent="GEHxs8WLX-EPLE1zo0yo-1" vertex="1">
          <mxGeometry x="10" y="290" width="120" height="60" as="geometry" />
        </mxCell>
        <mxCell id="GEHxs8WLX-EPLE1zo0yo-18" value="0x10" style="rounded=0;whiteSpace=wrap;html=1;" parent="GEHxs8WLX-EPLE1zo0yo-1" vertex="1">
          <mxGeometry x="10" y="120" width="120" height="30" as="geometry" />
        </mxCell>
        <mxCell id="GEHxs8WLX-EPLE1zo0yo-19" value="0x10" style="rounded=0;whiteSpace=wrap;html=1;" parent="GEHxs8WLX-EPLE1zo0yo-1" vertex="1">
          <mxGeometry x="10" y="260" width="120" height="30" as="geometry" />
        </mxCell>
        <mxCell id="GEHxs8WLX-EPLE1zo0yo-20" value="" style="shape=curlyBracket;whiteSpace=wrap;html=1;rounded=1;" parent="GEHxs8WLX-EPLE1zo0yo-1" vertex="1">
          <mxGeometry x="-10" y="10" width="20" height="110" as="geometry" />
        </mxCell>
        <mxCell id="GEHxs8WLX-EPLE1zo0yo-21" value="388k" style="text;html=1;strokeColor=none;fillColor=none;align=center;verticalAlign=middle;whiteSpace=wrap;rounded=0;" parent="GEHxs8WLX-EPLE1zo0yo-1" vertex="1">
          <mxGeometry x="-50" y="55" width="40" height="20" as="geometry" />
        </mxCell>
        <mxCell id="GEHxs8WLX-EPLE1zo0yo-22" value="" style="shape=curlyBracket;whiteSpace=wrap;html=1;rounded=1;" parent="GEHxs8WLX-EPLE1zo0yo-1" vertex="1">
          <mxGeometry x="-10" y="150" width="20" height="110" as="geometry" />
        </mxCell>
        <mxCell id="GEHxs8WLX-EPLE1zo0yo-23" value="40k" style="text;html=1;strokeColor=none;fillColor=none;align=center;verticalAlign=middle;whiteSpace=wrap;rounded=0;" parent="GEHxs8WLX-EPLE1zo0yo-1" vertex="1">
          <mxGeometry x="-50" y="190" width="40" height="20" as="geometry" />
        </mxCell>
        <mxCell id="GEHxs8WLX-EPLE1zo0yo-25" value="u-boot.itb" style="text;html=1;strokeColor=none;fillColor=none;align=center;verticalAlign=middle;whiteSpace=wrap;rounded=0;" parent="GEHxs8WLX-EPLE1zo0yo-1" vertex="1">
          <mxGeometry x="40" y="-30" width="70" height="20" as="geometry" />
        </mxCell>
        <mxCell id="GEHxs8WLX-EPLE1zo0yo-26" value="header&lt;br&gt;(0x40)" style="rounded=0;whiteSpace=wrap;html=1;fillColor=#dae8fc;strokeColor=#6c8ebf;" parent="GEHxs8WLX-EPLE1zo0yo-1" vertex="1">
          <mxGeometry x="460" y="470" width="120" height="60" as="geometry" />
        </mxCell>
        <mxCell id="GEHxs8WLX-EPLE1zo0yo-27" value="u-boot-spl.bin&lt;br&gt;" style="rounded=0;whiteSpace=wrap;html=1;fillColor=#dae8fc;strokeColor=#6c8ebf;" parent="GEHxs8WLX-EPLE1zo0yo-1" vertex="1">
          <mxGeometry x="460" y="330" width="120" height="140" as="geometry" />
        </mxCell>
        <mxCell id="GEHxs8WLX-EPLE1zo0yo-28" value="" style="rounded=0;whiteSpace=wrap;html=1;" parent="GEHxs8WLX-EPLE1zo0yo-1" vertex="1">
          <mxGeometry x="460" y="300" width="120" height="30" as="geometry" />
        </mxCell>
        <mxCell id="GEHxs8WLX-EPLE1zo0yo-29" value="u-boot.itb" style="rounded=0;whiteSpace=wrap;html=1;fillColor=#dae8fc;strokeColor=#6c8ebf;" parent="GEHxs8WLX-EPLE1zo0yo-1" vertex="1">
          <mxGeometry x="460" y="20" width="120" height="280" as="geometry" />
        </mxCell>
        <mxCell id="GEHxs8WLX-EPLE1zo0yo-30" value="0x0005_8000" style="text;html=1;strokeColor=none;fillColor=none;align=center;verticalAlign=middle;whiteSpace=wrap;rounded=0;" parent="GEHxs8WLX-EPLE1zo0yo-1" vertex="1">
          <mxGeometry x="610" y="290" width="40" height="20" as="geometry" />
        </mxCell>
        <mxCell id="GEHxs8WLX-EPLE1zo0yo-31" value="" style="endArrow=classic;html=1;exitX=0;exitY=0.5;exitDx=0;exitDy=0;entryX=0;entryY=0;entryDx=0;entryDy=0;exitPerimeter=0;" parent="GEHxs8WLX-EPLE1zo0yo-1" source="GEHxs8WLX-EPLE1zo0yo-13" target="GEHxs8WLX-EPLE1zo0yo-29" edge="1">
          <mxGeometry width="50" height="50" relative="1" as="geometry">
            <mxPoint x="390" y="280" as="sourcePoint" />
            <mxPoint x="440" y="230" as="targetPoint" />
          </mxGeometry>
        </mxCell>
        <mxCell id="GEHxs8WLX-EPLE1zo0yo-32" value="" style="endArrow=classic;html=1;exitX=1;exitY=1;exitDx=0;exitDy=0;entryX=0;entryY=1;entryDx=0;entryDy=0;" parent="GEHxs8WLX-EPLE1zo0yo-1" source="GEHxs8WLX-EPLE1zo0yo-2" target="GEHxs8WLX-EPLE1zo0yo-29" edge="1">
          <mxGeometry width="50" height="50" relative="1" as="geometry">
            <mxPoint x="390" y="280" as="sourcePoint" />
            <mxPoint x="440" y="230" as="targetPoint" />
          </mxGeometry>
        </mxCell>
        <mxCell id="EFPC-R5Wn2iW0xLTSsRZ-0" value="flash.bin" style="text;html=1;strokeColor=none;fillColor=none;align=center;verticalAlign=middle;whiteSpace=wrap;rounded=0;" parent="GEHxs8WLX-EPLE1zo0yo-1" vertex="1">
          <mxGeometry x="485" y="-30" width="70" height="20" as="geometry" />
        </mxCell>
        <mxCell id="EFPC-R5Wn2iW0xLTSsRZ-1" value="spl.bin" style="rounded=0;whiteSpace=wrap;html=1;fillColor=#e1d5e7;strokeColor=#9673a6;" parent="GEHxs8WLX-EPLE1zo0yo-1" vertex="1">
          <mxGeometry x="810" y="290" width="120" height="140" as="geometry" />
        </mxCell>
        <mxCell id="EFPC-R5Wn2iW0xLTSsRZ-2" value="u-boot.bin" style="rounded=0;whiteSpace=wrap;html=1;fillColor=#6d8764;strokeColor=#3A5431;fontColor=#ffffff;" parent="GEHxs8WLX-EPLE1zo0yo-1" vertex="1">
          <mxGeometry x="1110" y="290" width="120" height="140" as="geometry" />
        </mxCell>
        <mxCell id="EFPC-R5Wn2iW0xLTSsRZ-3" value="" style="rounded=0;whiteSpace=wrap;html=1;" parent="GEHxs8WLX-EPLE1zo0yo-1" vertex="1">
          <mxGeometry x="810" y="430" width="120" height="80" as="geometry" />
        </mxCell>
        <mxCell id="EFPC-R5Wn2iW0xLTSsRZ-4" value="BL31" style="rounded=0;whiteSpace=wrap;html=1;fillColor=#ffe6cc;strokeColor=#d79b00;" parent="GEHxs8WLX-EPLE1zo0yo-1" vertex="1">
          <mxGeometry x="810" y="30" width="120" height="260" as="geometry" />
        </mxCell>
        <mxCell id="EFPC-R5Wn2iW0xLTSsRZ-5" value="0x0000_0000" style="text;html=1;strokeColor=none;fillColor=none;align=center;verticalAlign=middle;whiteSpace=wrap;rounded=0;" parent="GEHxs8WLX-EPLE1zo0yo-1" vertex="1">
          <mxGeometry x="600" y="520" width="40" height="20" as="geometry" />
        </mxCell>
        <mxCell id="EFPC-R5Wn2iW0xLTSsRZ-6" value="0x0090_0000" style="text;html=1;strokeColor=none;fillColor=none;align=center;verticalAlign=middle;whiteSpace=wrap;rounded=0;" parent="GEHxs8WLX-EPLE1zo0yo-1" vertex="1">
          <mxGeometry x="950" y="500" width="40" height="20" as="geometry" />
        </mxCell>
        <mxCell id="EFPC-R5Wn2iW0xLTSsRZ-7" value="0x0098_0000" style="text;html=1;strokeColor=none;fillColor=none;align=center;verticalAlign=middle;whiteSpace=wrap;rounded=0;" parent="GEHxs8WLX-EPLE1zo0yo-1" vertex="1">
          <mxGeometry x="950" y="20" width="40" height="20" as="geometry" />
        </mxCell>
        <mxCell id="EFPC-R5Wn2iW0xLTSsRZ-8" value="OCRAM&lt;br&gt;(512k)" style="text;html=1;strokeColor=none;fillColor=none;align=center;verticalAlign=middle;whiteSpace=wrap;rounded=0;" parent="GEHxs8WLX-EPLE1zo0yo-1" vertex="1">
          <mxGeometry x="840" width="70" height="20" as="geometry" />
        </mxCell>
        <mxCell id="EFPC-R5Wn2iW0xLTSsRZ-9" value="0x0092_0000" style="text;html=1;strokeColor=none;fillColor=none;align=center;verticalAlign=middle;whiteSpace=wrap;rounded=0;" parent="GEHxs8WLX-EPLE1zo0yo-1" vertex="1">
          <mxGeometry x="950" y="415" width="40" height="20" as="geometry" />
        </mxCell>
        <mxCell id="EFPC-R5Wn2iW0xLTSsRZ-10" value="0x0096_0000" style="text;html=1;strokeColor=none;fillColor=none;align=center;verticalAlign=middle;whiteSpace=wrap;rounded=0;" parent="GEHxs8WLX-EPLE1zo0yo-1" vertex="1">
          <mxGeometry x="950" y="280" width="40" height="20" as="geometry" />
        </mxCell>
        <mxCell id="EFPC-R5Wn2iW0xLTSsRZ-11" value="" style="rounded=0;whiteSpace=wrap;html=1;" parent="GEHxs8WLX-EPLE1zo0yo-1" vertex="1">
          <mxGeometry x="1110" y="430" width="120" height="80" as="geometry" />
        </mxCell>
        <mxCell id="EFPC-R5Wn2iW0xLTSsRZ-12" value="0x4000_0000" style="text;html=1;strokeColor=none;fillColor=none;align=center;verticalAlign=middle;whiteSpace=wrap;rounded=0;" parent="GEHxs8WLX-EPLE1zo0yo-1" vertex="1">
          <mxGeometry x="1260" y="500" width="40" height="20" as="geometry" />
        </mxCell>
        <mxCell id="EFPC-R5Wn2iW0xLTSsRZ-13" value="0x4020_0000" style="text;html=1;strokeColor=none;fillColor=none;align=center;verticalAlign=middle;whiteSpace=wrap;rounded=0;" parent="GEHxs8WLX-EPLE1zo0yo-1" vertex="1">
          <mxGeometry x="1260" y="420" width="40" height="20" as="geometry" />
        </mxCell>
        <mxCell id="EFPC-R5Wn2iW0xLTSsRZ-14" value="" style="rounded=0;whiteSpace=wrap;html=1;" parent="GEHxs8WLX-EPLE1zo0yo-1" vertex="1">
          <mxGeometry x="1110" y="230" width="120" height="60" as="geometry" />
        </mxCell>
        <mxCell id="EFPC-R5Wn2iW0xLTSsRZ-15" value="optee.bin" style="rounded=0;whiteSpace=wrap;html=1;fillColor=#1ba1e2;strokeColor=#006EAF;fontColor=#ffffff;" parent="GEHxs8WLX-EPLE1zo0yo-1" vertex="1">
          <mxGeometry x="1110" y="90" width="120" height="140" as="geometry" />
        </mxCell>
        <mxCell id="EFPC-R5Wn2iW0xLTSsRZ-16" value="0x5600_0000" style="text;html=1;strokeColor=none;fillColor=none;align=center;verticalAlign=middle;whiteSpace=wrap;rounded=0;" parent="GEHxs8WLX-EPLE1zo0yo-1" vertex="1">
          <mxGeometry x="1250" y="220" width="40" height="20" as="geometry" />
        </mxCell>
        <mxCell id="EFPC-R5Wn2iW0xLTSsRZ-17" value="" style="rounded=0;whiteSpace=wrap;html=1;" parent="GEHxs8WLX-EPLE1zo0yo-1" vertex="1">
          <mxGeometry x="1110" y="30" width="120" height="60" as="geometry" />
        </mxCell>
        <mxCell id="EFPC-R5Wn2iW0xLTSsRZ-18" value="DDR" style="text;html=1;strokeColor=none;fillColor=none;align=center;verticalAlign=middle;whiteSpace=wrap;rounded=0;" parent="GEHxs8WLX-EPLE1zo0yo-1" vertex="1">
          <mxGeometry x="1135" width="70" height="20" as="geometry" />
        </mxCell>
        <mxCell id="_eMrDmwBI-ctp9VByzH1-0" value="" style="shape=flexArrow;endArrow=classic;html=1;" parent="GEHxs8WLX-EPLE1zo0yo-1" edge="1">
          <mxGeometry width="50" height="50" relative="1" as="geometry">
            <mxPoint x="1230" y="359.5" as="sourcePoint" />
            <mxPoint x="1340" y="359.5" as="targetPoint" />
          </mxGeometry>
        </mxCell>
        <mxCell id="_eMrDmwBI-ctp9VByzH1-3" value="freerots" style="rounded=0;whiteSpace=wrap;html=1;fillColor=#f0a30a;strokeColor=#BD7000;fontColor=#000000;" parent="GEHxs8WLX-EPLE1zo0yo-1" vertex="1">
          <mxGeometry x="1340" y="290" width="100" height="140" as="geometry" />
        </mxCell>
        <mxCell id="8fuyK0EGyeOVzpe1qIvq-0" value="" style="rounded=0;whiteSpace=wrap;html=1;" parent="GEHxs8WLX-EPLE1zo0yo-1" vertex="1">
          <mxGeometry x="1534" y="140" width="120" height="90" as="geometry" />
        </mxCell>
        <mxCell id="8fuyK0EGyeOVzpe1qIvq-1" value="0x5600_0000" style="text;html=1;strokeColor=none;fillColor=none;align=center;verticalAlign=middle;whiteSpace=wrap;rounded=0;" parent="GEHxs8WLX-EPLE1zo0yo-1" vertex="1">
          <mxGeometry x="1680" y="220" width="40" height="20" as="geometry" />
        </mxCell>
        <mxCell id="8fuyK0EGyeOVzpe1qIvq-2" value="share memory&lt;br&gt;(4M)" style="rounded=0;whiteSpace=wrap;html=1;fillColor=#60a917;strokeColor=#2D7600;fontColor=#ffffff;" parent="GEHxs8WLX-EPLE1zo0yo-1" vertex="1">
          <mxGeometry x="1534" y="50" width="120" height="90" as="geometry" />
        </mxCell>
        <mxCell id="8fuyK0EGyeOVzpe1qIvq-3" value="0X57C00000" style="text;whiteSpace=wrap;html=1;" parent="GEHxs8WLX-EPLE1zo0yo-1" vertex="1">
          <mxGeometry x="1670" y="130" width="100" height="30" as="geometry" />
        </mxCell>
        <mxCell id="8fuyK0EGyeOVzpe1qIvq-4" value="0X58000000" style="text;whiteSpace=wrap;html=1;" parent="GEHxs8WLX-EPLE1zo0yo-1" vertex="1">
          <mxGeometry x="1670" y="40" width="100" height="30" as="geometry" />
        </mxCell>
        <mxCell id="8fuyK0EGyeOVzpe1qIvq-5" value="OPTEE" style="text;html=1;strokeColor=none;fillColor=none;align=center;verticalAlign=middle;whiteSpace=wrap;rounded=0;" parent="GEHxs8WLX-EPLE1zo0yo-1" vertex="1">
          <mxGeometry x="1550" y="10" width="70" height="20" as="geometry" />
        </mxCell>
      </root>
    </mxGraphModel>
  </diagram>
  <diagram id="n502i9VDJ_kiB4uL9_mT" name="uboot_to_freertos">
    <mxGraphModel dx="1362" dy="1976" grid="1" gridSize="10" guides="1" tooltips="1" connect="1" arrows="1" fold="1" page="1" pageScale="1" pageWidth="827" pageHeight="1169" math="0" shadow="0">
      <root>
        <mxCell id="B7IP1bOU8ximIbpQJ3Bt-0" />
        <mxCell id="B7IP1bOU8ximIbpQJ3Bt-1" parent="B7IP1bOU8ximIbpQJ3Bt-0" />
        <mxCell id="Pkp2yLrsBNXFiBqFiujr-0" value="spl.bin" style="rounded=0;whiteSpace=wrap;html=1;fillColor=#e1d5e7;strokeColor=#9673a6;" parent="B7IP1bOU8ximIbpQJ3Bt-1" vertex="1">
          <mxGeometry x="810" y="290" width="120" height="140" as="geometry" />
        </mxCell>
        <mxCell id="Pkp2yLrsBNXFiBqFiujr-1" value="u-boot.bin" style="rounded=0;whiteSpace=wrap;html=1;fillColor=#6d8764;strokeColor=#3A5431;fontColor=#ffffff;" parent="B7IP1bOU8ximIbpQJ3Bt-1" vertex="1">
          <mxGeometry x="1110" y="290" width="120" height="140" as="geometry" />
        </mxCell>
        <mxCell id="Pkp2yLrsBNXFiBqFiujr-2" value="" style="rounded=0;whiteSpace=wrap;html=1;" parent="B7IP1bOU8ximIbpQJ3Bt-1" vertex="1">
          <mxGeometry x="810" y="430" width="120" height="80" as="geometry" />
        </mxCell>
        <mxCell id="Pkp2yLrsBNXFiBqFiujr-3" value="BL31" style="rounded=0;whiteSpace=wrap;html=1;fillColor=#ffe6cc;strokeColor=#d79b00;" parent="B7IP1bOU8ximIbpQJ3Bt-1" vertex="1">
          <mxGeometry x="810" y="30" width="120" height="260" as="geometry" />
        </mxCell>
        <mxCell id="Pkp2yLrsBNXFiBqFiujr-4" value="0x0090_0000" style="text;html=1;strokeColor=none;fillColor=none;align=center;verticalAlign=middle;whiteSpace=wrap;rounded=0;" parent="B7IP1bOU8ximIbpQJ3Bt-1" vertex="1">
          <mxGeometry x="950" y="500" width="40" height="20" as="geometry" />
        </mxCell>
        <mxCell id="Pkp2yLrsBNXFiBqFiujr-5" value="0x0098_0000" style="text;html=1;strokeColor=none;fillColor=none;align=center;verticalAlign=middle;whiteSpace=wrap;rounded=0;" parent="B7IP1bOU8ximIbpQJ3Bt-1" vertex="1">
          <mxGeometry x="950" y="20" width="40" height="20" as="geometry" />
        </mxCell>
        <mxCell id="Pkp2yLrsBNXFiBqFiujr-6" value="OCRAM&lt;br&gt;(512k)" style="text;html=1;strokeColor=none;fillColor=none;align=center;verticalAlign=middle;whiteSpace=wrap;rounded=0;" parent="B7IP1bOU8ximIbpQJ3Bt-1" vertex="1">
          <mxGeometry x="840" width="70" height="20" as="geometry" />
        </mxCell>
        <mxCell id="Pkp2yLrsBNXFiBqFiujr-7" value="0x0092_0000" style="text;html=1;strokeColor=none;fillColor=none;align=center;verticalAlign=middle;whiteSpace=wrap;rounded=0;" parent="B7IP1bOU8ximIbpQJ3Bt-1" vertex="1">
          <mxGeometry x="950" y="415" width="40" height="20" as="geometry" />
        </mxCell>
        <mxCell id="Pkp2yLrsBNXFiBqFiujr-8" value="0x0096_0000" style="text;html=1;strokeColor=none;fillColor=none;align=center;verticalAlign=middle;whiteSpace=wrap;rounded=0;" parent="B7IP1bOU8ximIbpQJ3Bt-1" vertex="1">
          <mxGeometry x="950" y="280" width="40" height="20" as="geometry" />
        </mxCell>
        <mxCell id="Pkp2yLrsBNXFiBqFiujr-9" value="" style="rounded=0;whiteSpace=wrap;html=1;" parent="B7IP1bOU8ximIbpQJ3Bt-1" vertex="1">
          <mxGeometry x="1110" y="430" width="120" height="80" as="geometry" />
        </mxCell>
        <mxCell id="Pkp2yLrsBNXFiBqFiujr-10" value="0x4000_0000" style="text;html=1;strokeColor=none;fillColor=none;align=center;verticalAlign=middle;whiteSpace=wrap;rounded=0;" parent="B7IP1bOU8ximIbpQJ3Bt-1" vertex="1">
          <mxGeometry x="1260" y="500" width="40" height="20" as="geometry" />
        </mxCell>
        <mxCell id="Pkp2yLrsBNXFiBqFiujr-11" value="0x4020_0000" style="text;html=1;strokeColor=none;fillColor=none;align=center;verticalAlign=middle;whiteSpace=wrap;rounded=0;" parent="B7IP1bOU8ximIbpQJ3Bt-1" vertex="1">
          <mxGeometry x="1260" y="420" width="40" height="20" as="geometry" />
        </mxCell>
        <mxCell id="Pkp2yLrsBNXFiBqFiujr-12" value="" style="rounded=0;whiteSpace=wrap;html=1;" parent="B7IP1bOU8ximIbpQJ3Bt-1" vertex="1">
          <mxGeometry x="1110" y="230" width="120" height="60" as="geometry" />
        </mxCell>
        <mxCell id="Pkp2yLrsBNXFiBqFiujr-13" value="optee.bin" style="rounded=0;whiteSpace=wrap;html=1;fillColor=#1ba1e2;strokeColor=#006EAF;fontColor=#ffffff;" parent="B7IP1bOU8ximIbpQJ3Bt-1" vertex="1">
          <mxGeometry x="1110" y="90" width="120" height="140" as="geometry" />
        </mxCell>
        <mxCell id="Pkp2yLrsBNXFiBqFiujr-14" value="0x5600_0000" style="text;html=1;strokeColor=none;fillColor=none;align=center;verticalAlign=middle;whiteSpace=wrap;rounded=0;" parent="B7IP1bOU8ximIbpQJ3Bt-1" vertex="1">
          <mxGeometry x="1250" y="220" width="40" height="20" as="geometry" />
        </mxCell>
        <mxCell id="Pkp2yLrsBNXFiBqFiujr-15" value="" style="rounded=0;whiteSpace=wrap;html=1;" parent="B7IP1bOU8ximIbpQJ3Bt-1" vertex="1">
          <mxGeometry x="1110" y="30" width="120" height="60" as="geometry" />
        </mxCell>
        <mxCell id="Pkp2yLrsBNXFiBqFiujr-16" value="DDR" style="text;html=1;strokeColor=none;fillColor=none;align=center;verticalAlign=middle;whiteSpace=wrap;rounded=0;" parent="B7IP1bOU8ximIbpQJ3Bt-1" vertex="1">
          <mxGeometry x="1135" width="70" height="20" as="geometry" />
        </mxCell>
        <mxCell id="Pkp2yLrsBNXFiBqFiujr-17" value="" style="shape=flexArrow;endArrow=classic;html=1;" parent="B7IP1bOU8ximIbpQJ3Bt-1" edge="1">
          <mxGeometry width="50" height="50" relative="1" as="geometry">
            <mxPoint x="1230" y="359.5" as="sourcePoint" />
            <mxPoint x="1340" y="359.5" as="targetPoint" />
          </mxGeometry>
        </mxCell>
        <mxCell id="Pkp2yLrsBNXFiBqFiujr-18" value="freerots" style="rounded=0;whiteSpace=wrap;html=1;fillColor=#f0a30a;strokeColor=#BD7000;fontColor=#000000;" parent="B7IP1bOU8ximIbpQJ3Bt-1" vertex="1">
          <mxGeometry x="1340" y="290" width="100" height="140" as="geometry" />
        </mxCell>
        <mxCell id="Pkp2yLrsBNXFiBqFiujr-19" value="change to" style="text;html=1;strokeColor=none;fillColor=none;align=center;verticalAlign=middle;whiteSpace=wrap;rounded=0;" parent="B7IP1bOU8ximIbpQJ3Bt-1" vertex="1">
          <mxGeometry x="1250" y="330" width="60" height="20" as="geometry" />
        </mxCell>
      </root>
    </mxGraphModel>
  </diagram>
</mxfile>
